<svg width="24" height="24" viewBox="0 0 24 24" fill="none" xmlns="http://www.w3.org/2000/svg">
<path d="M12 1C16.9706 1 21 5.02944 21 10C21 11.4734 20.4879 12.9511 19.7734 14.2969C19.0548 15.6507 18.0979 16.9344 17.125 18.0371C16.1511 19.1409 15.1412 20.0864 14.2988 20.7637C13.879 21.1012 13.4855 21.3838 13.1484 21.5879C12.9811 21.6892 12.8109 21.7816 12.6465 21.8516C12.5074 21.9107 12.2693 22 12 22C11.7307 22 11.4926 21.9107 11.3535 21.8516C11.1891 21.7816 11.0189 21.6892 10.8516 21.5879C10.5145 21.3838 10.121 21.1012 9.70117 20.7637C8.8588 20.0864 7.84895 19.1409 6.875 18.0371C5.90205 16.9344 4.94525 15.6507 4.22656 14.2969C3.51213 12.9511 3 11.4734 3 10C3 5.02944 7.02944 1 12 1ZM12 3C8.13401 3 5 6.13401 5 10C5 11.0266 5.36289 12.1739 5.99219 13.3594C6.61721 14.5367 7.47303 15.6906 8.375 16.7129C9.27589 17.7339 10.2038 18.6011 10.9551 19.2051C11.3319 19.508 11.6496 19.7334 11.8867 19.877C11.9288 19.9024 11.967 19.9232 12 19.9414C12.033 19.9232 12.0712 19.9024 12.1133 19.877C12.3504 19.7334 12.6681 19.508 13.0449 19.2051C13.7962 18.6011 14.7241 17.7339 15.625 16.7129C16.527 15.6906 17.3828 14.5367 18.0078 13.3594C18.6371 12.1739 19 11.0266 19 10C19 6.13401 15.866 3 12 3ZM12 7C13.1046 7 14 7.89543 14 9C14 10.1046 13.1046 11 12 11C10.8954 11 10 10.1046 10 9C10 7.89543 10.8954 7 12 7Z" fill="#020303"/>
</svg>
