<svg width="40" height="28" viewBox="0 0 40 28" fill="none" xmlns="http://www.w3.org/2000/svg">
<path fill-rule="evenodd" clip-rule="evenodd" d="M4 24H8C8 21.8 6.2 20 4 20V24ZM4 16C8.42 16 12 19.58 12 24H28C28 19.58 31.58 16 36 16V12C31.58 12 28 8.42 28 4H12C12 8.42 8.42 12 4 12V16ZM4 4H8C8 6.2 6.2 8 4 8V4ZM32 4C32 6.2 33.8 8 36 8V4H32ZM36 24H32C32 21.8 33.8 20 36 20V24ZM0 0H40V28H0V0ZM22 14C22 12.9 21.1 12 20 12C18.9 12 18 12.9 18 14C18 15.1 18.9 16 20 16C21.1 16 22 15.1 22 14ZM14 14C14 10.68 16.68 8 20 8C23.32 8 26 10.68 26 14C26 17.32 23.32 20 20 20C16.68 20 14 17.32 14 14Z" fill="black"/>
</svg>
