<svg preserveAspectRatio="none" width="100%" height="100%" overflow="visible" style="display: block;" viewBox="0 0 24 24" fill="none" xmlns="http://www.w3.org/2000/svg">
<!-- Group positioned with 16.67% left/right inset and 5.37% top/bottom inset within 24pt frame -->
<g transform="translate(4, 1.29)">
  <path d="M1.77 15.72C1.81 15.68 1.84 15.63 1.88 15.59L3.19 14.28C2.42 13.25 2 12.02 2 10.71C2 7.4 4.69 4.71 8 4.71H9.59L8.3 6L9.71 7.41L12.71 4.41C13.1 4.02 13.1 3.39 12.71 3L9.71 0L8.3 1.41L9.59 2.71H8C3.59 2.71 0 6.3 0 10.71C0 12.56 0.62 14.31 1.77 15.72Z" fill="black"/>
  <path d="M14 10.71C14 14.02 11.31 16.71 8 16.71H6.41L7.7 15.42L6.29 14.01L3.29 17.01C2.9 17.4 2.9 18.03 3.29 18.42L6.29 21.42L7.7 20.01L6.41 18.71H8C12.41 18.71 16 15.12 16 10.71C16 8.86 15.38 7.11 14.23 5.7C14.19 5.74 14.16 5.79 14.12 5.83L12.81 7.14C13.58 8.17 14 9.4 14 10.71Z" fill="black"/>
</g>
</svg>
