<svg width="18" height="18" viewBox="0 0 18 18" fill="none" xmlns="http://www.w3.org/2000/svg">
<path fill-rule="evenodd" clip-rule="evenodd" d="M0 9C0 4.03 4.03 0 9 0C13.97 0 18 4.03 18 9C18 13.97 13.97 18 9 18C4.03 18 0 13.97 0 9ZM2 9C2 12.86 5.14 16 9 16C12.86 16 16 12.86 16 9C16 5.14 12.86 2 9 2C5.14 2 2 5.14 2 9ZM5.71005 7.80005L8.00005 10.09L12.3101 5.80005L13.72 7.21005L8.72005 12.21C8.52005 12.4 8.27005 12.5 8.01005 12.5C7.75005 12.5 7.50005 12.41 7.30005 12.21L4.30005 9.21005L5.71005 7.80005Z" fill="#00B23B"/>
</svg>
