<svg preserveAspectRatio="none" width="100%" height="100%" overflow="visible" style="display: block;" viewBox="0 0 14 18" fill="none" xmlns="http://www.w3.org/2000/svg">
<path d="M13 14V8C13 5.39 11.33 3.18 9 2.35V2C9 0.9 8.1 0 7 0C5.9 0 5 0.9 5 2V2.35C2.67 3.18 1 5.39 1 8V14C0.447715 14 0 14.4477 0 15C0 15.5523 0.447715 16 1 16H5C5 17.1 5.9 18 7 18C8.1 18 9 17.1 9 16H13C13.5523 16 14 15.5523 14 15C14 14.4477 13.5523 14 13 14ZM3 14V8C3 5.79 4.79 4 7 4C9.21 4 11 5.79 11 8V14H3Z" fill="black"/>
</svg>
