<svg width="24" height="24" viewBox="0 0 24 24" fill="none" xmlns="http://www.w3.org/2000/svg">
<path d="M17 5V3H15V5H9V3H7V5C5.34 5 4 6.34 4 8V9V11V18C4 19.66 5.34 21 7 21H15H17C18.66 21 20 19.66 20 18V16V11V9V8C20 6.34 18.66 5 17 5ZM18 18C18 18.55 17.55 19 17 19H15C14.45 19 14 18.55 14 18V16C14 15.45 14.45 15 15 15H17C17.55 15 18 15.45 18 16V18ZM18 13.18C17.69 13.07 17.35 13 17 13H15C13.34 13 12 14.34 12 16V18C12 18.35 12.07 18.69 12.18 19H7C6.45 19 6 18.55 6 18V11H18V13.18ZM6 9V8C6 7.45 6.45 7 7 7H17C17.55 7 18 7.45 18 8V9H6Z" fill="black" fill-opacity="0.9"/>
</svg>
