<svg preserveAspectRatio="none" width="100%" height="100%" overflow="visible" style="display: block;" viewBox="0 0 40 40" fill="none" xmlns="http://www.w3.org/2000/svg">
<g id="Row ring">
<path id="Ellipse 75" d="M18.4997 2.06264C18.4076 0.961911 17.4376 0.134093 16.3515 0.335591C13.5783 0.850117 10.9375 1.94699 8.60696 3.56228C5.72692 5.55845 3.4219 8.27628 1.92273 11.4436C0.423569 14.6109 -0.21711 18.1165 0.0648601 21.6093C0.34683 25.1022 1.54155 28.4596 3.52937 31.3454C5.51719 34.2312 8.22834 36.5441 11.3913 38.0524C14.5542 39.5608 18.058 40.2116 21.5516 39.9397C25.0452 39.6679 28.4061 38.4829 31.2977 36.5034C33.6375 34.9016 35.6036 32.8251 37.0727 30.4174C37.648 29.4745 37.2203 28.2732 36.2247 27.7949C35.2291 27.3165 34.0443 27.7446 33.4456 28.6728C32.2958 30.4552 30.7993 31.9971 29.0381 33.2027C26.7249 34.7863 24.0362 35.7343 21.2413 35.9518C18.4464 36.1693 15.6434 35.6486 13.113 34.4419C10.5827 33.2353 8.41375 31.385 6.8235 29.0763C5.23324 26.7677 4.27747 24.0817 4.05189 21.2875C3.82631 18.4932 4.33886 15.6887 5.53819 13.1549C6.73752 10.621 8.58154 8.44676 10.8856 6.84983C12.6398 5.63399 14.6137 4.7853 16.6889 4.34635C17.7695 4.11777 18.5917 3.16336 18.4997 2.06264Z" fill="#64D188"/>
<path id="Ellipse 76" d="M20 2C20 0.895431 20.8977 -0.0103741 21.9968 0.0998779C25.6786 0.469218 29.1872 1.85359 32.1293 4.09773C33.0075 4.76764 33.0449 6.04239 32.2907 6.84938C31.5365 7.65637 30.2771 7.68732 29.3824 7.03959C27.2044 5.46279 24.6628 4.46002 21.9949 4.1248C20.899 3.9871 20 3.10457 20 2Z" fill="#009933"/>
<path id="Ellipse 77" d="M33.6896 8.31256C34.5296 7.59536 35.8013 7.68992 36.4311 8.59738C38.0871 10.9836 39.2082 13.7091 39.7066 16.5868C40.205 19.4645 40.0658 22.4082 39.3089 25.2123C39.021 26.2787 37.8551 26.7955 36.8228 26.4026C35.7905 26.0097 35.2854 24.8557 35.5465 23.7824C36.0638 21.6563 36.1411 19.4394 35.7653 17.2694C35.3894 15.0994 34.571 13.0377 33.3688 11.2094C32.7619 10.2864 32.8495 9.02976 33.6896 8.31256Z" fill="#33C162"/>
</g>
</svg>
