<svg preserveAspectRatio="none" width="100%" height="100%" overflow="visible" style="display: block;" viewBox="0 0 24 24" fill="none" xmlns="http://www.w3.org/2000/svg">
<path d="M6.58491 13.0049C6.97427 12.6156 7.60571 12.6156 7.99507 13.0049C8.38439 13.3943 8.38441 14.0258 7.99507 14.4151L6.41011 16.0001H19C19.5522 16.0001 20 16.4478 20 17.0001C19.9998 17.5523 19.5522 18.0001 19 18.0001H6.41011L7.99702 19.5938C8.3853 19.9838 8.38505 20.6148 7.99604 21.004C7.60626 21.3938 6.97372 21.3938 6.58394 21.004L3.28999 17.71C2.9 17.32 2.90002 16.6899 3.28999 16.2999L6.58491 13.0049ZM16.0048 3.00494C16.3942 2.61558 17.0256 2.61558 17.415 3.00494L20.7099 6.29987C21.0999 6.68987 21.0999 7.32002 20.7099 7.71002L17.4199 11.0001C17.0284 11.3915 16.393 11.3899 16.0029 10.9971C15.6147 10.6062 15.6153 9.97457 16.0048 9.58502L17.5898 8.00006H4.99995C4.44775 8.00003 4.00006 7.55224 3.99995 7.00006C3.99995 6.44779 4.44769 6.00009 4.99995 6.00006H17.5898L16.0048 4.4151C15.6155 4.02578 15.6156 3.39431 16.0048 3.00494Z" fill="black"/>
</svg>
