<svg width="16" height="16" viewBox="0 0 16 16" fill="none" xmlns="http://www.w3.org/2000/svg">
<path fill-rule="evenodd" clip-rule="evenodd" d="M2 8C2 4.68667 4.68667 2 8 2C11.3133 2 14 4.68667 14 8C14 11.3133 11.3133 14 8 14C4.68667 14 2 11.3133 2 8ZM3.33333 8C3.33333 10.5733 5.42667 12.6667 8 12.6667C10.5733 12.6667 12.6667 10.5733 12.6667 8C12.6667 5.42667 10.5733 3.33333 8 3.33333C5.42667 3.33333 3.33333 5.42667 3.33333 8ZM5.8067 7.20003L7.33337 8.7267L10.2067 5.8667L11.1467 6.8067L7.81337 10.14C7.68003 10.2667 7.51337 10.3334 7.34003 10.3334C7.1667 10.3334 7.00003 10.2734 6.8667 10.14L4.8667 8.14003L5.8067 7.20003Z" fill="#1A1A1A"/>
</svg>
