<svg preserveAspectRatio="none" width="100%" height="100%" overflow="visible" style="display: block;" viewBox="0 0 16.71 16.7" fill="none" xmlns="http://www.w3.org/2000/svg">
<path id="Vector" d="M7.01 13.99C8.58 13.99 10.03 13.46 11.19 12.59L15.3 16.7L16.71 15.29L12.6 11.18C13.48 10.01 14 8.57 14 7C14 3.14 10.86 0 7 0C3.14 0 0 3.14 0 7C0 10.86 3.15 13.99 7.01 13.99ZM7.01 1.99C9.77 1.99 12.01 4.23 12.01 6.99C12.01 9.75 9.77 11.99 7.01 11.99C4.25 11.99 2.01 9.75 2.01 6.99C2.01 4.23 4.25 1.99 7.01 1.99Z" fill="#000000" fill-opacity="0.9"/>
</svg>
