<svg preserveAspectRatio="none" width="100%" height="100%" overflow="visible" style="display: block;" viewBox="0 0 24 24" fill="none" xmlns="http://www.w3.org/2000/svg">
<path d="M10.5 17.4998C12.07 17.4998 13.52 16.9698 14.68 16.0998L18.085 19.5048C18.4744 19.8942 19.1056 19.8942 19.495 19.5048C19.8844 19.1155 19.8844 18.4842 19.495 18.0948L16.09 14.6898C16.97 13.5198 17.49 12.0798 17.49 10.5098C17.49 6.64983 14.35 3.50983 10.49 3.50983C6.62999 3.50983 3.48999 6.64983 3.48999 10.5098C3.48999 14.3698 6.63999 17.4998 10.5 17.4998ZM10.5 5.49983C13.26 5.49983 15.5 7.73983 15.5 10.4998C15.5 13.2598 13.26 15.4998 10.5 15.4998C7.73999 15.4998 5.49999 13.2598 5.49999 10.4998C5.49999 7.73983 7.73999 5.49983 10.5 5.49983Z" fill="black"/>
</svg>
