<svg preserveAspectRatio="none" width="100%" height="100%" overflow="visible" style="display: block;" viewBox="0 0 24 17" fill="none" xmlns="http://www.w3.org/2000/svg">
<path fill="black" id="Vector" d="M21 2C19.34 2 18 3.34 18 5C18 5.46 18.11 5.89 18.3 6.29L16.29 8.3C15.89 8.12 15.46 8 15 8C14.69 8 14.39 8.06 14.11 8.15L11.5 4.66C11.81 4.19 12 3.62 12 3C12 1.34 10.66 0 9 0C7.34 0 6 1.35 6 3C6 3.77 6.3 4.46 6.77 5L3.47 11.05C3.32 11.02 3.16 11 3 11C1.34 11 0 12.34 0 14C0 15.66 1.34 17 3 17C4.66 17 6 15.66 6 14C6 13.23 5.7 12.54 5.23 12.01L8.53 5.96C8.68 5.98 8.84 6 9 6C9.31 6 9.61 5.94 9.89 5.85L12.51 9.34C12.19 9.82 12 10.39 12 11C12 12.66 13.34 14 15 14C16.66 14 18 12.66 18 11C18 10.54 17.89 10.11 17.7 9.71L19.71 7.7C20.11 7.89 20.54 8 21 8C22.66 8 24 6.66 24 5C24 3.35 22.66 2 21 2ZM3 14.99C2.45 14.99 2 14.54 2 13.99C2 13.44 2.45 12.99 3 12.99C3.55 12.99 4 13.44 4 13.99C4 14.54 3.55 14.99 3 14.99ZM9 4C8.45 4 8 3.55 8 3C8 2.45 8.45 2 9 2C9.55 2 10 2.45 10 3C10 3.55 9.55 4 9 4ZM15 11.99C14.45 11.99 14 11.54 14 10.99C14 10.44 14.45 9.99 15 9.99C15.55 9.99 16 10.44 16 10.99C16 11.54 15.55 11.99 15 11.99ZM21 6C20.45 6 20 5.55 20 5C20 4.45 20.45 4 21 4C21.55 4 22 4.45 22 5C22 5.55 21.55 6 21 6Z"  fill-opacity="0.9"/>
</svg>
