<svg width="35" height="30" viewBox="0 0 35 30" fill="none" xmlns="http://www.w3.org/2000/svg">
<path fill-rule="evenodd" clip-rule="evenodd" d="M29.1667 6.66667H25.5333C25.7167 6.15 25.8333 5.58333 25.8333 5C25.8333 2.25 23.5833 0 20.8333 0C19.55 0 18.3833 0.5 17.5 1.3C16.6167 0.5 15.45 0 14.1667 0C11.4167 0 9.16668 2.25 9.16668 5C9.16668 5.58333 9.28334 6.15 9.46668 6.66667H5.83334C3.06668 6.66667 0.833344 8.9 0.833344 11.6667V25C0.833344 27.7667 3.06668 30 5.83334 30H15.8333H19.1667H29.1667C31.9333 30 34.1667 27.7667 34.1667 25V11.6667C34.1667 8.9 31.9333 6.66667 29.1667 6.66667ZM30.8333 11.6667V16.6667H19.1667V12.35L21.3167 14.5L23.6667 12.15L21.5167 10H29.1667C30.0833 10 30.8333 10.75 30.8333 11.6667ZM20.8333 3.33333C21.75 3.33333 22.5 4.08333 22.5 5C22.5 5.91667 21.75 6.66667 20.8333 6.66667H19.1667V5C19.1667 4.08333 19.9167 3.33333 20.8333 3.33333ZM12.5 5C12.5 4.08333 13.25 3.33333 14.1667 3.33333C15.0833 3.33333 15.8333 4.08333 15.8333 5V6.66667H14.1667C13.25 6.66667 12.5 5.91667 12.5 5ZM5.83334 10H13.4833L11.3333 12.15L13.6833 14.5L15.8333 12.35V16.6667H4.16668V11.6667C4.16668 10.75 4.91668 10 5.83334 10ZM5.83334 26.6667C4.91668 26.6667 4.16668 25.9167 4.16668 25V20H15.8333V26.6667H5.83334ZM29.1667 26.6667H19.1667V20H30.8333V25C30.8333 25.9167 30.0833 26.6667 29.1667 26.6667Z" fill="black"/>
</svg>
