<svg width="18" height="18" viewBox="0 0 18 18" fill="none" xmlns="http://www.w3.org/2000/svg">
<path d="M16 0C17.1046 0 18 0.895431 18 2V16C18 17.1046 17.1046 18 16 18H2C0.895431 18 8.05332e-09 17.1046 0 16V2C0 0.895431 0.895431 8.05332e-09 2 0H16ZM2 16H16V6H2V16ZM9.6875 7.90918C10.0624 7.98753 10.4098 8.15943 10.75 8.43359L10.9023 8.55957L10.167 9.74219L10.0068 9.57812C9.82628 9.39007 9.52756 9.26465 9.26367 9.26465C9.2394 9.2647 8.67384 9.27357 8.67383 9.67188C8.67383 9.89905 9.02744 10.064 9.40234 10.2285C10.076 10.5341 11 10.9415 11 12.2266C10.9999 13.0805 10.4721 13.8089 9.6875 14.0518V15H8.43066V14.0361C7.96541 13.9029 7.5206 13.6213 7.13867 13.2217L7 13.0723L7.91016 11.999L8.04883 12.1719C8.32659 12.5164 8.7228 12.7275 9.09766 12.7275C9.41676 12.7274 9.64535 12.524 9.64551 12.2266C9.64551 11.8975 9.38184 11.7478 8.81934 11.4971C8.57638 11.3874 8.3402 11.2855 8.125 11.1445C7.59041 10.7919 7.31934 10.2987 7.31934 9.66406C7.31934 8.90406 7.74995 8.26157 8.44434 7.9873V7H9.6875V7.90918ZM2 4H16V2H2V4Z" fill="black"/>
</svg>
