<svg width="48" height="48" viewBox="0 0 48 48" fill="none" xmlns="http://www.w3.org/2000/svg">
<path d="M38 6C40.2091 6 42 7.79086 42 10V38C42 40.2091 40.2091 42 38 42H10C7.79086 42 6 40.2091 6 38V10C6 7.79086 7.79086 6 10 6H38ZM10 38H38V18H10V38ZM25.375 21.8174C26.125 21.9741 26.8194 22.3197 27.5 22.8682L27.8057 23.1182L26.333 25.4844L26.0137 25.1553C25.6525 24.7794 25.055 24.5293 24.5273 24.5293C24.4788 24.5294 23.3477 24.5471 23.3477 25.3438C23.3477 25.7982 24.0557 26.127 24.8057 26.4561C26.1528 27.0672 27.9998 27.8824 28 30.4521C28 32.1602 26.9444 33.6177 25.375 34.1035V36H22.8613V34.0723C21.9308 33.8059 21.0412 33.2416 20.2773 32.4424L20 32.1445L21.8193 29.998L22.0977 30.3428C22.6532 31.0321 23.4444 31.455 24.1943 31.4551C24.8332 31.4551 25.292 31.0476 25.292 30.4521C25.2918 29.7942 24.7635 29.4965 23.6387 28.9951C23.1526 28.7758 22.6805 28.5721 22.25 28.29C21.1806 27.5849 20.6387 26.5975 20.6387 25.3281C20.6387 23.8081 21.4999 22.5231 22.8887 21.9746V20H25.375V21.8174ZM10 14H38V10H10V14Z" fill="black"/>
</svg>
