<svg preserveAspectRatio="none" width="100%" height="100%" overflow="visible" style="display: block;" viewBox="0 0 40 40" fill="none" xmlns="http://www.w3.org/2000/svg">
<g id="Row ring">
<path id="Ellipse 75" d="M18.1262 2.09779C18.0113 0.999225 17.0242 0.191801 15.9426 0.415886C13.4952 0.922936 11.1585 1.88555 9.05656 3.2596C6.3952 4.99937 4.18698 7.34859 2.61507 10.1124C1.04316 12.8763 0.152852 15.975 0.0179984 19.1517C-0.0885071 21.6607 0.278631 24.1611 1.0939 26.5237C1.45419 27.5679 2.65272 28.0035 3.65569 27.5408C4.65866 27.078 5.08346 25.8921 4.74938 24.8393C4.1854 23.0619 3.93488 21.1946 4.0144 19.3214C4.12228 16.78 4.83453 14.301 6.09206 12.0899C7.34959 9.87888 9.11616 7.99949 11.2453 6.60768C12.8146 5.58177 14.5476 4.84256 16.3634 4.41875C17.4391 4.16769 18.2412 3.19636 18.1262 2.09779Z" fill="#FFDFE5"/>
<path id="Ellipse 76" d="M20 2C20 0.895431 20.8977 -0.0103592 21.9967 0.0999157C23.9451 0.295411 25.8544 0.776033 27.6631 1.52632C28.6834 1.94954 29.0452 3.17238 28.5222 4.14531C27.9993 5.11823 26.7897 5.47002 25.7592 5.07243C24.5475 4.60497 23.2834 4.28675 21.9948 4.12484C20.8989 3.98712 20 3.10457 20 2Z" fill="#99001A"/>
<path id="Ellipse 77" d="M30.0898 5.09378C30.709 4.17906 31.9601 3.93213 32.8084 4.63951C35.0618 6.51847 36.8746 8.87082 38.1173 11.5286C38.5852 12.5292 38.0276 13.6761 36.9853 14.0417C35.943 14.4073 34.8126 13.8513 34.3199 12.8627C33.3931 11.0032 32.1127 9.34165 30.5508 7.97161C29.7204 7.24323 29.4707 6.0085 30.0898 5.09378Z" fill="#CC0023"/>
<path id="Ellipse 78" d="M37.5098 15.8279C38.5843 15.5719 39.6735 16.2351 39.821 17.3298C40.1995 20.1399 39.9772 23.0064 39.1594 25.7373C38.3416 28.4682 36.9519 30.9851 35.0912 33.1247C34.3663 33.9581 33.0918 33.9136 32.3349 33.1092C31.578 32.3047 31.6278 31.046 32.3316 30.1947C33.6907 28.5507 34.7118 26.6461 35.3275 24.5899C35.9433 22.5336 36.1371 20.3813 35.9052 18.2609C35.7852 17.1629 36.4353 16.0839 37.5098 15.8279Z" fill="#E0667B"/>
<path id="Ellipse 79" d="M30.8827 34.3376C31.5505 35.2175 31.3831 36.4817 30.441 37.0583C28.6094 38.1794 26.6054 39.0005 24.5047 39.4861C21.7529 40.1222 18.8977 40.1683 16.1269 39.6214C13.356 39.0744 10.7325 37.9468 8.42884 36.3128C6.67021 35.0654 5.12851 33.5444 3.8603 31.8114C3.20797 30.9201 3.53352 29.6871 4.48557 29.127C5.43761 28.5669 6.65407 28.8942 7.32848 29.769C8.29536 31.0231 9.4454 32.1298 10.7431 33.0503C12.586 34.3575 14.6848 35.2596 16.9015 35.6971C19.1181 36.1347 21.4023 36.0978 23.6037 35.5889C25.1538 35.2305 26.6381 34.6439 28.009 33.8512C28.9653 33.2983 30.2148 33.4578 30.8827 34.3376Z" fill="#EB99A7"/>
</g>
</svg>
