<svg preserveAspectRatio="none" width="100%" height="100%" overflow="visible" style="display: block;" viewBox="0 0 24 24" fill="none" xmlns="http://www.w3.org/2000/svg">
<g id="Arrow / Download">
<path id="Union" d="M21 13.0005C21.5523 13.0005 22 13.4482 22 14.0005V17.0005C21.9997 18.6603 20.6598 20.0005 19 20.0005H5C3.34016 20.0005 2.00026 18.6603 2 17.0005L2.03027 14.0298C2.03585 13.4815 2.48198 13.0396 3.03027 13.0396C3.58631 13.0398 4.03589 13.4942 4.03027 14.0503L4 17.0005C4.00027 17.5503 4.45016 18.0005 5 18.0005H19C19.5498 18.0005 19.9997 17.5503 20 17.0005V14.0005C20 13.4482 20.4477 13.0005 21 13.0005ZM11.9902 2.99756C12.5424 2.99766 12.9902 3.44534 12.9902 3.99756V11.5874L14.584 10.0005C14.9739 9.61223 15.6049 9.61251 15.9941 10.0015C16.3839 10.3913 16.3839 11.0238 15.9941 11.4136L12.7002 14.7075C12.3102 15.0975 11.68 15.0975 11.29 14.7075L7.99512 11.4126C7.60576 11.0232 7.60576 10.3918 7.99512 10.0024C8.38449 9.61318 9.01594 9.61311 9.40527 10.0024L10.9902 11.5874V3.99756C10.9902 3.44527 11.4379 2.99756 11.9902 2.99756Z" fill="black" fill-opacity="0.9"/>
</g>
</svg>
