<svg preserveAspectRatio="none" width="100%" height="100%" overflow="visible" style="display: block;" viewBox="0 0 20 16" fill="none" xmlns="http://www.w3.org/2000/svg">
<path d="M13.7002 0.0459107C14.0512 -0.0644611 14.4407 0.0268093 14.707 0.292981L15.707 1.29298C15.8945 1.48041 15.9999 1.73495 16 2.00001V5.88185L17.5527 5.10548L17.7002 5.04591C18.0512 4.93553 18.4407 5.02679 18.707 5.29298L19.707 6.29298C19.8945 6.48043 19.9999 6.73494 20 7.00001V15C20 15.5523 19.5523 16 19 16H5C4.44772 16 4 15.5523 4 15V11H1C0.447715 11 0 10.5523 0 10V2.00001C0.000116247 1.73495 0.105536 1.48041 0.292969 1.29298L1.29297 0.292981L1.41406 0.189465C1.71214 -0.0260483 2.11053 -0.0628049 2.44727 0.105481L4 0.881848L5.55273 0.105481L5.66016 0.0595826C5.91603 -0.0328616 6.2009 -0.0176426 6.44727 0.105481L8 0.881848L9.55273 0.105481L9.66016 0.0595826C9.91603 -0.0328617 10.2009 -0.0176427 10.4473 0.105481L12 0.881848L13.5527 0.105481L13.7002 0.0459107ZM12.4473 7.89454C12.1657 8.03531 11.8343 8.03531 11.5527 7.89454L10 7.11818L8.44727 7.89454C8.16574 8.03531 7.83426 8.03531 7.55273 7.89454L6.19727 7.21681L6 7.41407V14H18V7.41407L17.8027 7.21681L16.4473 7.89454C16.1657 8.03531 15.8343 8.03531 15.5527 7.89454L14 7.11818L12.4473 7.89454ZM15 10C15.5523 10 16 10.4478 16 11C16 11.5523 15.5523 12 15 12H12C11.4477 12 11 11.5523 11 11C11 10.4478 11.4477 10 12 10H15ZM8.44727 2.89454C8.16574 3.03531 7.83426 3.03531 7.55273 2.89454L6 2.11818L4.44727 2.89454C4.16574 3.03531 3.83426 3.03531 3.55273 2.89454L2.19727 2.21681L2 2.41407V9.00001H4V7.00001C4.0001 6.73494 4.10552 6.48043 4.29297 6.29298L5.29297 5.29298L5.41406 5.18947C5.71215 4.97393 6.11052 4.93718 6.44727 5.10548L8 5.88185L9.55273 5.10548L9.66016 5.05958C9.91604 4.96713 10.2009 4.98235 10.4473 5.10548L12 5.88185L13.5527 5.10548L13.6602 5.05958C13.7699 5.01994 13.8849 5.00102 14 5.00099V2.41407L13.8027 2.21681L12.4473 2.89454C12.1657 3.03531 11.8343 3.03531 11.5527 2.89454L10 2.11818L8.44727 2.89454Z" fill="white"/>
</svg>
