<svg preserveAspectRatio="none" width="100%" height="100%" overflow="visible" style="display: block;" viewBox="0 0 24 24" fill="none" xmlns="http://www.w3.org/2000/svg">
<path d="M14.1602 4.39258C14.4159 4.30022 14.701 4.31547 14.9473 4.43848L16.6133 5.27149C16.9519 5.44079 17.1658 5.78748 17.166 6.16602V8.88184L17.833 9.21583L19.0527 8.60547L19.1602 8.55958C19.416 8.4672 19.701 8.4824 19.9473 8.60547L21.6133 9.43848C21.952 9.60783 22.1659 9.95437 22.166 10.333V18.667C22.1658 19.2191 21.7182 19.667 21.166 19.667H7.83301C7.281 19.6668 6.83322 19.219 6.83301 18.667V15.5H2.83301C2.28098 15.4998 1.83318 15.052 1.83301 14.5V6.16602C1.83323 5.78753 2.04722 5.44082 2.38574 5.27149L4.05273 4.43848L4.16016 4.39258C4.41593 4.30022 4.70099 4.31547 4.94727 4.43848L6.16602 5.04883L7.38574 4.43848L7.49316 4.39258C7.74901 4.30011 8.0339 4.31542 8.28027 4.43848L9.49902 5.04883L10.7188 4.43848L10.8271 4.39258C11.0828 4.30037 11.3672 4.31563 11.6133 4.43848L12.833 5.04883L14.0527 4.43848L14.1602 4.39258ZM18.2803 11.2275C17.9988 11.3682 17.6672 11.3683 17.3857 11.2275L16.166 10.6172L14.9473 11.2275C14.6658 11.3681 14.3341 11.3682 14.0527 11.2275L12.833 10.6172L11.6133 11.2275C11.3318 11.3681 11.0001 11.3682 10.7188 11.2275L9.49902 10.6172L8.83301 10.9512V17.667H20.166V10.9512L19.499 10.6172L18.2803 11.2275ZM17.833 14.333C18.3852 14.333 18.8329 14.7808 18.833 15.333C18.833 15.8853 18.3853 16.333 17.833 16.333H14.5C13.9477 16.333 13.5 15.8853 13.5 15.333C13.5001 14.7808 13.9478 14.333 14.5 14.333H17.833ZM13.2803 7.06055C12.9988 7.20124 12.6672 7.20129 12.3857 7.06055L11.166 6.4502L9.94727 7.06055C9.66582 7.20122 9.33418 7.20122 9.05273 7.06055L7.83301 6.4502L6.61328 7.06055C6.33182 7.20117 6.00018 7.20127 5.71875 7.06055L4.49902 6.4502L3.83301 6.78419V13.5H6.83301V10.333C6.83313 9.95448 7.04722 9.60788 7.38574 9.43848L9.05273 8.60547L9.16016 8.55958C9.41597 8.4672 9.70096 8.4824 9.94727 8.60547L11.166 9.21583L12.3857 8.60547L12.4932 8.55958C12.7491 8.46708 13.0339 8.48235 13.2803 8.60547L14.499 9.21583L15.166 8.88184V6.78419L14.499 6.4502L13.2803 7.06055Z" fill="black"/>
</svg>
